<svg xmlns="http://www.w3.org/2000/svg" viewBox="0 0 24 24"><defs><style>.cls-1{fill:#3a559e;}</style></defs><g id="Layer_2" data-name="Layer 2"><g id="Layer_1-2" data-name="Layer 1"><path class="cls-1" d="M12.8,24H.2C0,24,0,24,0,23.8V.2C0,0,0,0,.2,0H23.8C24,0,24,0,24,.2V23.8c0,.17,0,.2-.2.2H16.53V15c0-.33,0-.33.3-.33H19.4c.17,0,.23,0,.27-.2.13-1.1.26-2.17.43-3.27,0-.3,0-.3-.27-.3H16.77c-.14,0-.24,0-.24-.2V8.33A1.32,1.32,0,0,1,18,7h2c.2,0,.27,0,.27-.27V3.8c0-.2-.07-.27-.27-.27H17.8a12.7,12.7,0,0,0-1.63.07,4.22,4.22,0,0,0-3.44,3.87c0,1.06,0,2.1,0,3.16,0,.2-.06.27-.26.27H9.83c-.2,0-.26.07-.26.27v3.26c0,.24.06.27.26.27H12.4c.3,0,.3,0,.3.33v8.64A.43.43,0,0,1,12.8,24Z"/></g></g></svg>