<svg xmlns="http://www.w3.org/2000/svg" viewBox="0 0 24 23.99"><defs><style>.cls-1{fill:#e60023;}</style></defs><g id="Layer_2" data-name="Layer 2"><g id="Layer_1-2" data-name="Layer 1"><path class="cls-1" d="M21.47,4.64A12,12,0,0,0,.25,14.42a11.87,11.87,0,0,0,4.07,6.8,11.46,11.46,0,0,0,3.34,2c0-.3,0-.53-.07-.77a9.07,9.07,0,0,1,.1-2.7c.43-1.93.9-3.84,1.34-5.77a.68.68,0,0,0,0-.37,4.29,4.29,0,0,1-.16-2.5A2.62,2.62,0,0,1,9.89,9.41a1.49,1.49,0,0,1,2.44,1.1,5.29,5.29,0,0,1-.2,1.57c-.23.9-.5,1.77-.77,2.64a1.59,1.59,0,0,0,.1,1.23,2,2,0,0,0,2.2,1A3.4,3.4,0,0,0,16,15.25a7,7,0,0,0,.93-4.37,4.38,4.38,0,0,0-2.44-3.74,5.53,5.53,0,0,0-3.17-.57A5,5,0,0,0,7.26,9a4.83,4.83,0,0,0,.1,5.51.54.54,0,0,1,.06.4c-.06.4-.2.8-.3,1.2s-.16.36-.43.2A3.35,3.35,0,0,1,5.29,15a6.15,6.15,0,0,1-.9-4.27,6.63,6.63,0,0,1,3.17-5,8.44,8.44,0,0,1,7.91-.57,6.4,6.4,0,0,1,4,4.87,8.18,8.18,0,0,1-1.17,6,5.81,5.81,0,0,1-3,2.47,3.9,3.9,0,0,1-4.61-1.07c-.53,2.1-.93,4.21-2.27,6A12,12,0,0,0,21.47,4.64Z"/></g></g></svg>