<?xml version="1.0" encoding="utf-8"?>
<!-- Generator: Adobe Illustrator 25.1.0, SVG Export Plug-In . SVG Version: 6.00 Build 0)  -->
<svg version="1.1" id="Layer_1" xmlns="http://www.w3.org/2000/svg" xmlns:xlink="http://www.w3.org/1999/xlink" x="0px" y="0px"
	 viewBox="0 0 360 126" style="enable-background:new 0 0 360 126;" xml:space="preserve">
<style type="text/css">
	.st0{fill:#484F59;}
	.st1{fill:#3A559E;}
	.st2{fill:#55ABED;}
	.st3{fill:#E60023;}
</style>
<path class="st0" d="M0,18C0,9,9,0,18,0h324c9,0,18,9,18,18v54c0,9-9,18-18,18H216l-36,36l-36-36H18C9,90,0,81,0,72V18z"/>
<g>
	<path class="st1" d="M12.8,210c-4.2,0-8.4,0-12.6,0C0,210,0,210,0,209.8c0-7.9,0-15.7,0-23.6c0-0.2,0-0.2,0.2-0.2
		c7.9,0,15.7,0,23.6,0c0.2,0,0.2,0,0.2,0.2c0,7.9,0,15.7,0,23.6c0,0.2,0,0.2-0.2,0.2c-2.4,0-4.8,0-7.3,0c0-0.1,0-0.2,0-0.3
		c0-2.9,0-5.7,0-8.6c0-0.3,0-0.3,0.3-0.3c0.9,0,1.7,0,2.6,0c0.2,0,0.2,0,0.3-0.2c0.1-1.1,0.3-2.2,0.4-3.3c0-0.3,0-0.3-0.3-0.3
		c-1,0-2,0-3.1,0c-0.1,0-0.2,0-0.2-0.2c0-0.8,0-1.6,0-2.4c0-0.9,0.6-1.4,1.4-1.4c0.7,0,1.3,0,2,0c0.2,0,0.3,0,0.3-0.3
		c0-1,0-1.9,0-2.9c0-0.2-0.1-0.3-0.3-0.3c-0.7,0-1.4,0-2.1,0c-0.5,0-1.1,0-1.6,0.1c-1.8,0.3-3.4,2-3.4,3.9c0,1.1,0,2.1,0,3.2
		c0,0.2-0.1,0.3-0.3,0.3c-0.9,0-1.8,0-2.6,0c-0.2,0-0.3,0.1-0.3,0.3c0,1.1,0,2.2,0,3.3c0,0.2,0.1,0.3,0.3,0.3c0.8,0,1.7,0,2.6,0
		c0.3,0,0.3,0,0.3,0.3c0,2.9,0,5.7,0,8.6C12.8,209.8,12.8,209.9,12.8,210z"/>
</g>
<g>
	<path class="st2" d="M0,163.7c2.7,0.2,5.1-0.4,7.2-2.1c-2.3-0.2-3.8-1.4-4.6-3.5c0.4,0.1,0.7,0.1,1.1,0.1s0.7-0.1,1.1-0.2
		c-1.3-0.3-2.4-1-3.1-2.2C1.2,155,0.9,154,0.9,153c0.7,0.4,1.4,0.6,2.2,0.6c-0.1-0.1-0.1-0.1-0.2-0.2c-0.5-0.4-1-0.9-1.3-1.5
		c-0.3-0.5-0.5-1.1-0.6-1.7c0-0.2-0.1-0.5,0-0.8c0-0.9,0.2-1.7,0.6-2.4c0.1-0.1,0.1-0.1,0.1,0c0.5,0.6,1,1.2,1.6,1.7
		c0.7,0.6,1.4,1.1,2.2,1.6c0.5,0.3,1.1,0.6,1.6,0.8c0.7,0.3,1.4,0.5,2.1,0.7c0.4,0.1,0.8,0.2,1.2,0.2c0.3,0.1,0.7,0.1,1,0.1
		c0.1,0,0.2,0,0.3,0s0.1,0,0.1-0.1c-0.3-1.6,0-3.1,1.1-4.3c0.8-1,1.9-1.6,3.2-1.8c0.4-0.1,0.7-0.1,1.1,0c0.5,0.1,1,0.2,1.5,0.4
		c0.4,0.2,0.7,0.4,1.1,0.7c0.1,0.1,0.3,0.2,0.4,0.4l0.1,0.1c0.7-0.1,1.4-0.4,2-0.7c0.4-0.2,0.7-0.3,1.1-0.6
		c-0.4,1.2-1.1,2.1-2.1,2.8c0.2,0,0.4,0,0.5-0.1c0.2,0,0.4-0.1,0.6-0.1c0.2-0.1,0.4-0.1,0.6-0.2c0.2-0.1,0.4-0.1,0.5-0.2
		c0.2-0.1,0.4-0.1,0.5-0.2c-0.1,0.2-0.3,0.4-0.4,0.6c-0.3,0.4-0.6,0.8-1,1.1c-0.3,0.3-0.7,0.6-1,0.9c-0.1,0.1-0.1,0.2-0.1,0.3
		c0,0.3,0,0.6,0,0.8v0.1c0,0.9-0.2,1.9-0.4,2.8c-0.6,2.4-1.6,4.5-3.2,6.4c-1.8,2.1-4,3.5-6.7,4.2c-0.7,0.2-1.4,0.3-2.1,0.4
		c-0.2,0-0.5,0.1-0.7,0.1c-0.6,0.1-1.2,0-1.8,0c-0.4,0-0.8-0.1-1.3-0.1c-0.9-0.1-1.8-0.4-2.7-0.7c-0.7-0.3-1.3-0.6-1.9-0.9
		C0.6,164.1,0.3,163.9,0,163.7z"/>
</g>
<path class="st3" d="M21.5,234.5c-3.4-4.4-9.4-5.9-14.5-3.5s-7.9,7.8-6.7,13.3c0.6,2.7,1.9,5,4.1,6.8c1,0.8,2.1,1.5,3.3,2
	c0-0.3,0-0.5-0.1-0.8c-0.1-0.9-0.1-1.8,0.1-2.7c0.4-1.9,0.9-3.8,1.3-5.8c0-0.1,0-0.3,0-0.4c-0.3-0.8-0.4-1.7-0.2-2.5
	c0.2-0.7,0.5-1.3,1.1-1.7c0.9-0.6,2.3-0.4,2.4,1.1c0,0.5-0.1,1.1-0.2,1.6c-0.2,0.9-0.5,1.8-0.8,2.6c-0.1,0.4-0.1,0.8,0.1,1.2
	c0.4,0.8,1.2,1.1,2.2,1c1-0.2,1.8-0.8,2.3-1.7c0.8-1.3,1.1-2.8,0.9-4.4c-0.1-1.7-0.9-2.9-2.4-3.7c-1-0.5-2.1-0.7-3.2-0.6
	c-1.7,0.2-3.1,0.9-4,2.4c-1.1,1.8-1.1,3.7,0.1,5.5c0.1,0.1,0.1,0.3,0.1,0.4c-0.1,0.4-0.2,0.8-0.3,1.2c-0.1,0.3-0.2,0.4-0.4,0.2
	c-0.6-0.3-1.1-0.8-1.4-1.3c-0.8-1.3-1.1-2.7-0.9-4.3c0.3-2.1,1.3-3.9,3.2-5c2.5-1.5,5.2-1.7,7.9-0.6c2.2,0.9,3.5,2.5,4,4.9
	c0.4,2.1,0,4.2-1.2,6c-0.7,1.2-1.7,2-3,2.5c-1.5,0.5-3.5,0.5-4.6-1.1c-0.5,2.1-0.9,4.2-2.3,6c3.7,1.3,9.3,0.6,12.9-3.8
	C24.8,245.1,24.9,238.9,21.5,234.5z"/>
</svg>
