<?xml version="1.0" encoding="utf-8"?>
<!-- Generator: Adobe Illustrator 25.1.0, SVG Export Plug-In . SVG Version: 6.00 Build 0)  -->
<svg version="1.1" id="Layer_1" xmlns="http://www.w3.org/2000/svg" xmlns:xlink="http://www.w3.org/1999/xlink" x="0px" y="0px"
	 viewBox="0 0 28.4 24" style="enable-background:new 0 0 28.4 24;" xml:space="preserve">
<style type="text/css">
	.st0{fill:#55ABED;}
</style>
<g id="Layer_2_1_">
	<g id="Layer_1-2">
		<path class="st0" d="M-0.3,21.3c3.1,0.3,6.2-0.6,8.7-2.5c-2.5-0.1-4.7-1.8-5.5-4.2c0.4,0.1,0.9,0.1,1.3,0.1c0.5,0,0.9-0.1,1.3-0.2
			c-1.5-0.3-2.9-1.3-3.7-2.6c-0.7-1-1-2.2-1-3.4c0.8,0.5,1.7,0.7,2.6,0.8C3.3,9.1,3.2,9,3.1,9C2.5,8.5,2,7.9,1.6,7.2
			C1.3,6.6,1,5.9,0.9,5.2c0-0.3,0-0.7,0-1.1c0-1,0.2-2,0.7-2.9c0.1-0.1,0.1-0.1,0.2,0c0.6,0.7,1.2,1.4,1.9,2C4.4,4,5.3,4.6,6.2,5.1
			c0.6,0.4,1.3,0.7,1.9,1C9,6.5,9.8,6.8,10.7,7c0.5,0.1,1,0.2,1.5,0.3c0.4,0.1,0.8,0.1,1.2,0.1c0.1,0,0.3,0,0.4,0
			c0.1,0,0.1,0,0.1-0.1c-0.4-1.8,0.1-3.7,1.3-5.2c0.9-1.2,2.3-2,3.8-2.1c0.4-0.1,0.9-0.1,1.3,0c0.6,0.1,1.2,0.3,1.8,0.5
			C22.5,0.8,23,1,23.3,1.4c0.2,0.1,0.3,0.3,0.5,0.5c0,0,0.1,0.1,0.2,0.1c0.8-0.2,1.6-0.4,2.4-0.8c0.4-0.2,0.9-0.4,1.3-0.6
			c-0.4,1.4-1.3,2.6-2.5,3.3c0.2,0,0.4,0,0.6-0.1c0.2,0,0.5-0.1,0.7-0.1l0.7-0.2c0.2-0.1,0.4-0.1,0.7-0.2C28,3.1,28.2,3,28.4,2.9
			c-0.2,0.3-0.3,0.5-0.5,0.7c-0.4,0.5-0.8,0.9-1.2,1.3c-0.4,0.4-0.8,0.7-1.2,1c-0.1,0.1-0.1,0.2-0.1,0.3c0,0.3,0,0.7,0,1v0.1
			c0,1.2-0.1,2.3-0.4,3.5c-0.7,2.8-2,5.4-3.8,7.5c-2.1,2.5-4.9,4.2-8,5.1c-0.8,0.2-1.7,0.4-2.5,0.5c-0.3,0-0.6,0.1-0.8,0.1
			c-0.7,0.1-1.4,0-2.1,0s-1-0.1-1.5-0.2C5.1,23.6,4,23.3,3,22.9c-0.8-0.3-1.5-0.7-2.2-1.1C0.4,21.7,0,21.5-0.3,21.3z"/>
	</g>
</g>
</svg>
